<svg width="96" height="96" viewBox="0 0 96 96" fill="none" xmlns="http://www.w3.org/2000/svg">
<path d="M32.7037 42.6598L19.9263 43.4871L0.240411 63.6538L24.8124 56.4766L32.7037 42.6598ZM52.7926 62.7487L51.9582 75.519L31.7915 95.2049L38.9686 70.6329L52.7926 62.7487ZM79.4293 16.016C78.6586 15.2452 75.9928 15.323 72.2451 16.214L79.2313 23.2002C80.1223 19.4525 80.2 16.7867 79.4293 16.016Z" fill="#BD93F9"/>
<path d="M79.2313 23.2001L72.2451 16.2139C63.8305 18.1938 50.0136 24.3032 40.2556 34.0613C32.7249 41.592 27.3226 49.7096 24.8336 56.5544L38.9757 70.6965C45.7993 68.1863 53.9381 62.8052 61.4688 55.2745C71.1915 45.4387 77.2726 31.5935 79.2313 23.2001V23.2001Z" fill="#E6E7E8"/>
<path d="M48.154 47.2913C50.3526 49.49 53.9174 49.49 56.116 47.2913C58.3147 45.0927 58.3147 41.5279 56.116 39.3293C53.9174 37.1306 50.3526 37.1306 48.154 39.3293C45.9553 41.5279 45.9553 45.0927 48.154 47.2913Z" fill="#1A1B24"/>
<path d="M60.1253 35.32C61.5155 36.7102 63.7696 36.7102 65.1599 35.32C66.5501 33.9297 66.5501 31.6756 65.1599 30.2854C63.7696 28.8951 61.5155 28.8951 60.1253 30.2854C58.735 31.6756 58.735 33.9297 60.1253 35.32Z" fill="#1A1B24"/>
<path opacity="0.2" d="M59.8919 36.4725C61.29 37.8706 63.5567 37.8706 64.9548 36.4725C66.3529 35.0745 66.3529 32.8077 64.9548 31.4097C63.5567 30.0116 61.29 30.0116 59.8919 31.4097C58.4939 32.8077 58.4938 35.0745 59.8919 36.4725Z" fill="#3C3F52"/>
<path opacity="0.2" d="M48.0055 48.359C50.2041 50.5577 53.7688 50.5577 55.9675 48.359C58.1661 46.1604 58.1661 42.5957 55.9675 40.397C53.7688 38.1984 50.2041 38.1984 48.0055 40.397C45.8068 42.5957 45.8068 46.1604 48.0055 48.359Z" fill="#3C3F52"/>
<path d="M16.5675 78.8777L41.8112 51.7673L43.678 53.634L16.5675 78.8777Z" fill="#BD93F9"/>
<path d="M35.921 70.145L25.3003 59.5243L24.8124 56.4766L38.9687 70.6329L35.921 70.145Z" fill="#BD93F9"/>
<path opacity="0.2" d="M43.678 53.634L43.7487 54.2846L32.6754 64.3396L32.435 64.0992L43.678 53.634Z" fill="#3C3F52"/>
</svg>
