<svg width="96" height="96" viewBox="0 0 96 96" fill="none" xmlns="http://www.w3.org/2000/svg">
  <path d="M32.8911 42.7771L20.1136 43.6044L0.427789 63.7711L24.9997 56.594L32.8911 42.7771V42.7771ZM52.98 62.866L52.1456 75.6364L31.9789 95.3222L39.156 70.7503L52.98 62.866ZM79.6167 16.1333C78.8459 15.3626 76.1801 15.4404 72.4325 16.3313L79.4187 23.3175C80.3096 19.5699 80.3874 16.9041 79.6167 16.1333Z" fill="#E35C5C"/>
  <path d="M79.4187 23.3175L72.4324 16.3313C64.0179 18.3112 50.201 24.4206 40.4429 34.1787C32.9122 41.7094 27.51 49.827 25.0209 56.6717L39.1631 70.8139C45.9867 68.3037 54.1254 62.9226 61.6561 55.3919C71.3789 45.556 77.46 31.7109 79.4187 23.3175Z" fill="#E6E7E8"/>
  <path d="M48.3414 47.4087C50.54 49.6073 54.1047 49.6073 56.3034 47.4087C58.502 45.21 58.502 41.6453 56.3034 39.4467C54.1047 37.248 50.54 37.248 48.3414 39.4467C46.1427 41.6453 46.1427 45.21 48.3414 47.4087Z" fill="#1A1B24"/>
  <path d="M60.3126 35.4373C61.7029 36.8276 63.957 36.8276 65.3472 35.4373C66.7375 34.0471 66.7375 31.793 65.3472 30.4027C63.957 29.0125 61.7029 29.0125 60.3126 30.4027C58.9224 31.793 58.9224 34.0471 60.3126 35.4373Z" fill="#1A1B24"/>
  <path opacity="0.2" d="M60.0793 36.5899C61.4774 37.988 63.7441 37.988 65.1422 36.5899C66.5403 35.1918 66.5403 32.9251 65.1422 31.527C63.7441 30.129 61.4774 30.129 60.0793 31.527C58.6812 32.9251 58.6812 35.1918 60.0793 36.5899Z" fill="#3C3F52"/>
  <path opacity="0.2" d="M48.1928 48.4764C50.3915 50.6751 53.9562 50.6751 56.1549 48.4764C58.3535 46.2778 58.3535 42.713 56.1548 40.5144C53.9562 38.3157 50.3915 38.3157 48.1928 40.5144C45.9942 42.713 45.9942 46.2777 48.1928 48.4764Z" fill="#3C3F52"/>
  <path d="M16.7549 78.9951L41.9986 51.8846L43.8653 53.7514L16.7549 78.9951Z" fill="#E35C5C"/>
  <path d="M36.1084 70.2624L25.4877 59.6416L24.9998 56.594L39.156 70.7503L36.1084 70.2624Z" fill="#E35C5C"/>
  <path opacity="0.2" d="M43.8653 53.7514L43.9361 54.4019L32.8628 64.457L32.6223 64.2166L43.8653 53.7514Z" fill="#3C3F52"/>
</svg>
